<mxfile host="app.diagrams.net" modified="2024-05-19T03:26:15.298Z" agent="Mozilla/5.0 (Macintosh; Intel Mac OS X 10_15_7) AppleWebKit/537.36 (KHTML, like Gecko) Chrome/124.0.0.0 Safari/537.36" etag="KxUehTLDBJgApzpK-T65" version="24.4.4" type="github">
  <diagram name="Page-1" id="2YBvvXClWsGukQMizWep">
    <mxGraphModel dx="751" dy="713" grid="1" gridSize="10" guides="1" tooltips="1" connect="1" arrows="1" fold="1" page="1" pageScale="1" pageWidth="850" pageHeight="1100" math="0" shadow="0">
      <root>
        <mxCell id="0" />
        <mxCell id="1" parent="0" />
        <mxCell id="g542iLzbW10gb0fRLzY8-14" value="Ultrasonic Sensor&amp;nbsp;" style="shape=umlActor;verticalLabelPosition=bottom;verticalAlign=top;html=1;" vertex="1" parent="1">
          <mxGeometry x="65" y="80" width="30" height="40" as="geometry" />
        </mxCell>
        <mxCell id="g542iLzbW10gb0fRLzY8-15" value="&lt;font style=&quot;font-size: 11px;&quot;&gt;Ultrasonic Sensor boundary&lt;/font&gt;" style="shape=umlBoundary;whiteSpace=wrap;html=1;" vertex="1" parent="1">
          <mxGeometry x="155" y="69" width="80" height="60" as="geometry" />
        </mxCell>
        <mxCell id="g542iLzbW10gb0fRLzY8-16" value="Parking&lt;div&gt;Controller&lt;/div&gt;" style="ellipse;shape=umlControl;whiteSpace=wrap;html=1;" vertex="1" parent="1">
          <mxGeometry x="325" y="51" width="70" height="80" as="geometry" />
        </mxCell>
        <mxCell id="g542iLzbW10gb0fRLzY8-17" value="Parking&lt;div&gt;System&lt;/div&gt;" style="ellipse;shape=umlEntity;whiteSpace=wrap;html=1;" vertex="1" parent="1">
          <mxGeometry x="460" y="60" width="70" height="70" as="geometry" />
        </mxCell>
        <mxCell id="g542iLzbW10gb0fRLzY8-18" value="" style="endArrow=none;dashed=1;html=1;rounded=0;" edge="1" parent="1" source="g542iLzbW10gb0fRLzY8-27">
          <mxGeometry width="50" height="50" relative="1" as="geometry">
            <mxPoint x="80" y="390" as="sourcePoint" />
            <mxPoint x="80" y="150" as="targetPoint" />
          </mxGeometry>
        </mxCell>
        <mxCell id="g542iLzbW10gb0fRLzY8-20" value="" style="endArrow=none;dashed=1;html=1;rounded=0;" edge="1" parent="1" source="g542iLzbW10gb0fRLzY8-32">
          <mxGeometry width="50" height="50" relative="1" as="geometry">
            <mxPoint x="200" y="390" as="sourcePoint" />
            <mxPoint x="200" y="130" as="targetPoint" />
          </mxGeometry>
        </mxCell>
        <mxCell id="g542iLzbW10gb0fRLzY8-22" value="" style="endArrow=none;dashed=1;html=1;rounded=0;" edge="1" parent="1" source="g542iLzbW10gb0fRLzY8-34">
          <mxGeometry width="50" height="50" relative="1" as="geometry">
            <mxPoint x="360" y="395" as="sourcePoint" />
            <mxPoint x="360" y="135" as="targetPoint" />
          </mxGeometry>
        </mxCell>
        <mxCell id="g542iLzbW10gb0fRLzY8-23" value="" style="endArrow=none;dashed=1;html=1;rounded=0;" edge="1" parent="1" source="g542iLzbW10gb0fRLzY8-36">
          <mxGeometry width="50" height="50" relative="1" as="geometry">
            <mxPoint x="494.5" y="389" as="sourcePoint" />
            <mxPoint x="494.5" y="129" as="targetPoint" />
          </mxGeometry>
        </mxCell>
        <mxCell id="g542iLzbW10gb0fRLzY8-26" value="" style="endArrow=none;dashed=1;html=1;rounded=0;" edge="1" parent="1" target="g542iLzbW10gb0fRLzY8-27">
          <mxGeometry width="50" height="50" relative="1" as="geometry">
            <mxPoint x="80" y="390" as="sourcePoint" />
            <mxPoint x="80" y="150" as="targetPoint" />
          </mxGeometry>
        </mxCell>
        <mxCell id="g542iLzbW10gb0fRLzY8-27" value="" style="html=1;points=[[0,0,0,0,5],[0,1,0,0,-5],[1,0,0,0,5],[1,1,0,0,-5]];perimeter=orthogonalPerimeter;outlineConnect=0;targetShapes=umlLifeline;portConstraint=eastwest;newEdgeStyle={&quot;curved&quot;:0,&quot;rounded&quot;:0};" vertex="1" parent="1">
          <mxGeometry x="75" y="159" width="10" height="111" as="geometry" />
        </mxCell>
        <mxCell id="g542iLzbW10gb0fRLzY8-31" value="" style="endArrow=none;dashed=1;html=1;rounded=0;" edge="1" parent="1" target="g542iLzbW10gb0fRLzY8-32">
          <mxGeometry width="50" height="50" relative="1" as="geometry">
            <mxPoint x="200" y="390" as="sourcePoint" />
            <mxPoint x="200" y="130" as="targetPoint" />
          </mxGeometry>
        </mxCell>
        <mxCell id="g542iLzbW10gb0fRLzY8-32" value="" style="html=1;points=[[0,0,0,0,5],[0,1,0,0,-5],[1,0,0,0,5],[1,1,0,0,-5]];perimeter=orthogonalPerimeter;outlineConnect=0;targetShapes=umlLifeline;portConstraint=eastwest;newEdgeStyle={&quot;curved&quot;:0,&quot;rounded&quot;:0};" vertex="1" parent="1">
          <mxGeometry x="196" y="240" width="10" height="61" as="geometry" />
        </mxCell>
        <mxCell id="g542iLzbW10gb0fRLzY8-33" value="" style="endArrow=none;dashed=1;html=1;rounded=0;" edge="1" parent="1" target="g542iLzbW10gb0fRLzY8-34">
          <mxGeometry width="50" height="50" relative="1" as="geometry">
            <mxPoint x="360" y="395" as="sourcePoint" />
            <mxPoint x="360" y="135" as="targetPoint" />
          </mxGeometry>
        </mxCell>
        <mxCell id="g542iLzbW10gb0fRLzY8-51" value="Notify update&amp;nbsp;" style="edgeStyle=orthogonalEdgeStyle;rounded=0;orthogonalLoop=1;jettySize=auto;html=1;curved=0;endArrow=open;endFill=0;dashed=1;exitX=-0.2;exitY=0.855;exitDx=0;exitDy=0;exitPerimeter=0;" edge="1" parent="1">
          <mxGeometry x="0.0067" y="-10" relative="1" as="geometry">
            <mxPoint x="206" y="289" as="targetPoint" />
            <mxPoint x="488" y="289.505" as="sourcePoint" />
            <mxPoint as="offset" />
          </mxGeometry>
        </mxCell>
        <mxCell id="g542iLzbW10gb0fRLzY8-34" value="" style="html=1;points=[[0,0,0,0,5],[0,1,0,0,-5],[1,0,0,0,5],[1,1,0,0,-5]];perimeter=orthogonalPerimeter;outlineConnect=0;targetShapes=umlLifeline;portConstraint=eastwest;newEdgeStyle={&quot;curved&quot;:0,&quot;rounded&quot;:0};" vertex="1" parent="1">
          <mxGeometry x="355" y="159" width="10" height="91" as="geometry" />
        </mxCell>
        <mxCell id="g542iLzbW10gb0fRLzY8-35" value="" style="endArrow=none;dashed=1;html=1;rounded=0;" edge="1" parent="1" target="g542iLzbW10gb0fRLzY8-36">
          <mxGeometry width="50" height="50" relative="1" as="geometry">
            <mxPoint x="494.5" y="389" as="sourcePoint" />
            <mxPoint x="494.5" y="129" as="targetPoint" />
          </mxGeometry>
        </mxCell>
        <mxCell id="g542iLzbW10gb0fRLzY8-47" style="edgeStyle=orthogonalEdgeStyle;rounded=0;orthogonalLoop=1;jettySize=auto;html=1;curved=0;dashed=1;endArrow=open;endFill=0;" edge="1" parent="1">
          <mxGeometry relative="1" as="geometry">
            <mxPoint x="490" y="240" as="sourcePoint" />
            <mxPoint x="365" y="240.5" as="targetPoint" />
          </mxGeometry>
        </mxCell>
        <mxCell id="g542iLzbW10gb0fRLzY8-48" value="Acknowledge&amp;nbsp;&lt;div&gt;Update&lt;/div&gt;" style="edgeLabel;html=1;align=center;verticalAlign=middle;resizable=0;points=[];" vertex="1" connectable="0" parent="g542iLzbW10gb0fRLzY8-47">
          <mxGeometry x="0.072" y="-2" relative="1" as="geometry">
            <mxPoint x="7" y="-16" as="offset" />
          </mxGeometry>
        </mxCell>
        <mxCell id="g542iLzbW10gb0fRLzY8-36" value="" style="html=1;points=[[0,0,0,0,5],[0,1,0,0,-5],[1,0,0,0,5],[1,1,0,0,-5]];perimeter=orthogonalPerimeter;outlineConnect=0;targetShapes=umlLifeline;portConstraint=eastwest;newEdgeStyle={&quot;curved&quot;:0,&quot;rounded&quot;:0};" vertex="1" parent="1">
          <mxGeometry x="490" y="159" width="10" height="151" as="geometry" />
        </mxCell>
        <mxCell id="g542iLzbW10gb0fRLzY8-43" value="Detect parking slot&lt;div&gt;&amp;nbsp;status&amp;nbsp;&lt;/div&gt;" style="html=1;verticalAlign=bottom;endArrow=block;curved=0;rounded=0;" edge="1" parent="1" target="g542iLzbW10gb0fRLzY8-34">
          <mxGeometry x="-0.0074" width="80" relative="1" as="geometry">
            <mxPoint x="85" y="183.04700000000003" as="sourcePoint" />
            <mxPoint x="196" y="183.04700000000003" as="targetPoint" />
            <mxPoint as="offset" />
          </mxGeometry>
        </mxCell>
        <mxCell id="g542iLzbW10gb0fRLzY8-44" value="Update Status" style="html=1;verticalAlign=bottom;endArrow=block;curved=0;rounded=0;exitX=1.1;exitY=0.313;exitDx=0;exitDy=0;exitPerimeter=0;" edge="1" parent="1">
          <mxGeometry width="80" relative="1" as="geometry">
            <mxPoint x="366" y="191.48299999999995" as="sourcePoint" />
            <mxPoint x="490" y="191.48299999999995" as="targetPoint" />
          </mxGeometry>
        </mxCell>
        <mxCell id="g542iLzbW10gb0fRLzY8-53" value="CCTV" style="shape=umlActor;verticalLabelPosition=bottom;verticalAlign=top;html=1;" vertex="1" parent="1">
          <mxGeometry x="65" y="519" width="30" height="40" as="geometry" />
        </mxCell>
        <mxCell id="g542iLzbW10gb0fRLzY8-54" value="Car plate&lt;div&gt;boundary&lt;/div&gt;" style="shape=umlBoundary;whiteSpace=wrap;html=1;" vertex="1" parent="1">
          <mxGeometry x="155" y="508" width="80" height="60" as="geometry" />
        </mxCell>
        <mxCell id="g542iLzbW10gb0fRLzY8-55" value="Parking&lt;div&gt;Controller&lt;/div&gt;" style="ellipse;shape=umlControl;whiteSpace=wrap;html=1;" vertex="1" parent="1">
          <mxGeometry x="325" y="490" width="70" height="80" as="geometry" />
        </mxCell>
        <mxCell id="g542iLzbW10gb0fRLzY8-56" value="Parking&lt;div&gt;System&lt;/div&gt;" style="ellipse;shape=umlEntity;whiteSpace=wrap;html=1;" vertex="1" parent="1">
          <mxGeometry x="460" y="499" width="70" height="70" as="geometry" />
        </mxCell>
        <mxCell id="g542iLzbW10gb0fRLzY8-57" value="" style="endArrow=none;dashed=1;html=1;rounded=0;" edge="1" parent="1" source="g542iLzbW10gb0fRLzY8-62">
          <mxGeometry width="50" height="50" relative="1" as="geometry">
            <mxPoint x="80" y="829" as="sourcePoint" />
            <mxPoint x="80" y="589" as="targetPoint" />
          </mxGeometry>
        </mxCell>
        <mxCell id="g542iLzbW10gb0fRLzY8-58" value="" style="endArrow=none;dashed=1;html=1;rounded=0;" edge="1" parent="1" source="g542iLzbW10gb0fRLzY8-64">
          <mxGeometry width="50" height="50" relative="1" as="geometry">
            <mxPoint x="200" y="829" as="sourcePoint" />
            <mxPoint x="200" y="569" as="targetPoint" />
          </mxGeometry>
        </mxCell>
        <mxCell id="g542iLzbW10gb0fRLzY8-59" value="" style="endArrow=none;dashed=1;html=1;rounded=0;" edge="1" parent="1" source="g542iLzbW10gb0fRLzY8-67">
          <mxGeometry width="50" height="50" relative="1" as="geometry">
            <mxPoint x="360" y="834" as="sourcePoint" />
            <mxPoint x="360" y="574" as="targetPoint" />
          </mxGeometry>
        </mxCell>
        <mxCell id="g542iLzbW10gb0fRLzY8-60" value="" style="endArrow=none;dashed=1;html=1;rounded=0;" edge="1" parent="1" source="g542iLzbW10gb0fRLzY8-71">
          <mxGeometry width="50" height="50" relative="1" as="geometry">
            <mxPoint x="494.5" y="828" as="sourcePoint" />
            <mxPoint x="494.5" y="568" as="targetPoint" />
          </mxGeometry>
        </mxCell>
        <mxCell id="g542iLzbW10gb0fRLzY8-61" value="" style="endArrow=none;dashed=1;html=1;rounded=0;" edge="1" parent="1" target="g542iLzbW10gb0fRLzY8-62">
          <mxGeometry width="50" height="50" relative="1" as="geometry">
            <mxPoint x="80" y="829" as="sourcePoint" />
            <mxPoint x="80" y="589" as="targetPoint" />
          </mxGeometry>
        </mxCell>
        <mxCell id="g542iLzbW10gb0fRLzY8-62" value="" style="html=1;points=[[0,0,0,0,5],[0,1,0,0,-5],[1,0,0,0,5],[1,1,0,0,-5]];perimeter=orthogonalPerimeter;outlineConnect=0;targetShapes=umlLifeline;portConstraint=eastwest;newEdgeStyle={&quot;curved&quot;:0,&quot;rounded&quot;:0};" vertex="1" parent="1">
          <mxGeometry x="75" y="598" width="10" height="111" as="geometry" />
        </mxCell>
        <mxCell id="g542iLzbW10gb0fRLzY8-63" value="" style="endArrow=none;dashed=1;html=1;rounded=0;" edge="1" parent="1" target="g542iLzbW10gb0fRLzY8-64">
          <mxGeometry width="50" height="50" relative="1" as="geometry">
            <mxPoint x="200" y="829" as="sourcePoint" />
            <mxPoint x="200" y="569" as="targetPoint" />
          </mxGeometry>
        </mxCell>
        <mxCell id="g542iLzbW10gb0fRLzY8-64" value="" style="html=1;points=[[0,0,0,0,5],[0,1,0,0,-5],[1,0,0,0,5],[1,1,0,0,-5]];perimeter=orthogonalPerimeter;outlineConnect=0;targetShapes=umlLifeline;portConstraint=eastwest;newEdgeStyle={&quot;curved&quot;:0,&quot;rounded&quot;:0};" vertex="1" parent="1">
          <mxGeometry x="196" y="679" width="10" height="61" as="geometry" />
        </mxCell>
        <mxCell id="g542iLzbW10gb0fRLzY8-65" value="" style="endArrow=none;dashed=1;html=1;rounded=0;" edge="1" parent="1" target="g542iLzbW10gb0fRLzY8-67">
          <mxGeometry width="50" height="50" relative="1" as="geometry">
            <mxPoint x="360" y="834" as="sourcePoint" />
            <mxPoint x="360" y="574" as="targetPoint" />
          </mxGeometry>
        </mxCell>
        <mxCell id="g542iLzbW10gb0fRLzY8-67" value="" style="html=1;points=[[0,0,0,0,5],[0,1,0,0,-5],[1,0,0,0,5],[1,1,0,0,-5]];perimeter=orthogonalPerimeter;outlineConnect=0;targetShapes=umlLifeline;portConstraint=eastwest;newEdgeStyle={&quot;curved&quot;:0,&quot;rounded&quot;:0};" vertex="1" parent="1">
          <mxGeometry x="355" y="598" width="10" height="91" as="geometry" />
        </mxCell>
        <mxCell id="g542iLzbW10gb0fRLzY8-68" value="" style="endArrow=none;dashed=1;html=1;rounded=0;" edge="1" parent="1" target="g542iLzbW10gb0fRLzY8-71">
          <mxGeometry width="50" height="50" relative="1" as="geometry">
            <mxPoint x="494.5" y="828" as="sourcePoint" />
            <mxPoint x="494.5" y="568" as="targetPoint" />
          </mxGeometry>
        </mxCell>
        <mxCell id="g542iLzbW10gb0fRLzY8-71" value="" style="html=1;points=[[0,0,0,0,5],[0,1,0,0,-5],[1,0,0,0,5],[1,1,0,0,-5]];perimeter=orthogonalPerimeter;outlineConnect=0;targetShapes=umlLifeline;portConstraint=eastwest;newEdgeStyle={&quot;curved&quot;:0,&quot;rounded&quot;:0};" vertex="1" parent="1">
          <mxGeometry x="490" y="598" width="10" height="151" as="geometry" />
        </mxCell>
        <mxCell id="g542iLzbW10gb0fRLzY8-75" value="Capture Plate" style="html=1;verticalAlign=bottom;endArrow=block;curved=0;rounded=0;entryX=-0.3;entryY=0.132;entryDx=0;entryDy=0;entryPerimeter=0;" edge="1" parent="1" source="g542iLzbW10gb0fRLzY8-62" target="g542iLzbW10gb0fRLzY8-67">
          <mxGeometry width="80" relative="1" as="geometry">
            <mxPoint x="110" y="610" as="sourcePoint" />
            <mxPoint x="170" y="610" as="targetPoint" />
          </mxGeometry>
        </mxCell>
        <mxCell id="g542iLzbW10gb0fRLzY8-76" value="Record Plate" style="html=1;verticalAlign=bottom;endArrow=block;curved=0;rounded=0;exitX=1.1;exitY=0.313;exitDx=0;exitDy=0;exitPerimeter=0;" edge="1" parent="1">
          <mxGeometry width="80" relative="1" as="geometry">
            <mxPoint x="366" y="620.0029999999999" as="sourcePoint" />
            <mxPoint x="490" y="620.0029999999999" as="targetPoint" />
            <mxPoint as="offset" />
          </mxGeometry>
        </mxCell>
        <mxCell id="g542iLzbW10gb0fRLzY8-77" style="edgeStyle=orthogonalEdgeStyle;rounded=0;orthogonalLoop=1;jettySize=auto;html=1;curved=0;dashed=1;endArrow=open;endFill=0;" edge="1" parent="1">
          <mxGeometry relative="1" as="geometry">
            <mxPoint x="488" y="660" as="sourcePoint" />
            <mxPoint x="363" y="660.5" as="targetPoint" />
          </mxGeometry>
        </mxCell>
        <mxCell id="g542iLzbW10gb0fRLzY8-78" value="Acknowledge&amp;nbsp;&lt;div&gt;Update&lt;/div&gt;" style="edgeLabel;html=1;align=center;verticalAlign=middle;resizable=0;points=[];" vertex="1" connectable="0" parent="g542iLzbW10gb0fRLzY8-77">
          <mxGeometry x="0.072" y="-2" relative="1" as="geometry">
            <mxPoint x="7" y="-16" as="offset" />
          </mxGeometry>
        </mxCell>
        <mxCell id="g542iLzbW10gb0fRLzY8-79" value="Notify update&amp;nbsp;" style="edgeStyle=orthogonalEdgeStyle;rounded=0;orthogonalLoop=1;jettySize=auto;html=1;curved=0;endArrow=open;endFill=0;dashed=1;exitX=-0.2;exitY=0.855;exitDx=0;exitDy=0;exitPerimeter=0;" edge="1" parent="1">
          <mxGeometry x="0.0067" y="-10" relative="1" as="geometry">
            <mxPoint x="206" y="730" as="targetPoint" />
            <mxPoint x="488" y="730.505" as="sourcePoint" />
            <mxPoint as="offset" />
          </mxGeometry>
        </mxCell>
      </root>
    </mxGraphModel>
  </diagram>
</mxfile>
